<svg width="24" height="24" viewBox="0 0 24 24" fill="none" xmlns="http://www.w3.org/2000/svg">
<path d="M11.9973 8.47C13.784 8.47 15.2323 7.02164 15.2323 5.235C15.2323 3.44836 13.784 2 11.9973 2C10.2107 2 8.76233 3.44836 8.76233 5.235C8.76233 7.02164 10.2107 8.47 11.9973 8.47Z" stroke="#2581D8" stroke-width="1.5" stroke-linecap="round" stroke-linejoin="round"/>
<path d="M7.49729 16.8752L13.4973 10.7302C13.792 10.4199 14.1468 10.1728 14.5401 10.004C14.9333 9.83512 15.3568 9.74805 15.7848 9.74805C16.2128 9.74805 16.6362 9.83512 17.0295 10.004C17.4228 10.1728 17.7775 10.4199 18.0723 10.7302C18.6578 11.3479 18.9842 12.1666 18.9842 13.0177C18.9842 13.8688 18.6578 14.6875 18.0723 15.3052C16.0223 17.4152 11.9973 21.5002 11.9973 21.5002C11.9973 21.5002 7.99729 17.3602 5.96229 15.3052C5.65766 15.0072 5.41561 14.6513 5.25037 14.2585C5.08512 13.8657 5 13.4438 5 13.0177C5 12.5915 5.08512 12.1697 5.25037 11.7768C5.41561 11.384 5.65766 11.0282 5.96229 10.7302C6.57882 10.1424 7.39796 9.81446 8.24979 9.81446C9.10162 9.81446 9.92076 10.1424 10.5373 10.7302L16.5673 16.8752" stroke="#2581D8" stroke-width="1.5" stroke-linecap="round" stroke-linejoin="round"/>
</svg>
