<svg width="24" height="24" viewBox="0 0 24 24" fill="none" xmlns="http://www.w3.org/2000/svg">
<g clip-path="url(#clip0_53_307)">
<path d="M19.0525 20.1131C17.7961 21.2054 16.3032 21.9909 14.6914 22.4078C13.0796 22.8247 11.393 22.8616 9.7646 22.5155C8.13615 22.1694 6.61034 21.4498 5.30743 20.4134C4.00452 19.3771 2.96012 18.0523 2.25655 16.5434C1.55297 15.0346 1.20946 13.3829 1.25308 11.7187C1.2967 10.0544 1.72626 8.42307 2.5079 6.95315C3.28955 5.48323 4.40191 4.21495 5.75732 3.24826C7.11273 2.28157 8.67414 1.6429 10.3185 1.38258M13.31 1.33008C15.1356 1.55422 16.8732 2.24305 18.3566 3.33068C19.8399 4.41831 21.0194 5.86835 21.7822 7.54211C22.5449 9.21587 22.8654 11.0573 22.7131 12.8904C22.5607 14.7234 21.9406 16.4867 20.912 18.0116" stroke="#2581D8" stroke-width="1.5" stroke-linecap="round" stroke-linejoin="round"/>
<path d="M12 9.1238C10.268 3.6548 1.03447 10.3538 12 16.8908ZM12 9.1238C13.732 3.6548 22.9655 10.3538 12 16.8908Z" stroke="#2581D8" stroke-width="1.5" stroke-linecap="round" stroke-linejoin="round"/>
</g>
<defs>
<clipPath id="clip0_53_307">
<rect width="24" height="24" fill="white"/>
</clipPath>
</defs>
</svg>
