<svg width="24" height="22" viewBox="0 0 24 22" fill="none" xmlns="http://www.w3.org/2000/svg">
<path d="M21.607 5.20301C21.4931 4.78041 21.2705 4.39501 20.9614 4.08518C20.6522 3.77534 20.2673 3.55187 19.845 3.43701C18.279 3.00701 12.014 3.00001 12.014 3.00001C12.014 3.00001 5.75 2.99301 4.183 3.40401C3.76093 3.52415 3.37682 3.75078 3.06757 4.06214C2.75831 4.3735 2.53429 4.75913 2.417 5.18201C2.004 6.74801 2 9.99601 2 9.99601C2 9.99601 1.996 13.26 2.406 14.81C2.636 15.667 3.311 16.344 4.169 16.575C5.751 17.005 11.999 17.012 11.999 17.012C11.999 17.012 18.264 17.019 19.83 16.609C20.2525 16.4943 20.6377 16.2714 20.9477 15.9622C21.2576 15.653 21.4814 15.2682 21.597 14.846C22.011 13.281 22.014 10.034 22.014 10.034C22.014 10.034 22.034 6.76901 21.607 5.20301ZM10.01 13.005L10.015 7.00501L15.222 10.01L10.01 13.005Z" fill="#292727" fill-opacity="0.81"/>
</svg>
