<svg width="24" height="24" viewBox="0 0 24 24" fill="none" xmlns="http://www.w3.org/2000/svg">
<g clip-path="url(#clip0_53_353)">
<path d="M12 7.5V17M12 7.5C12 6.70435 11.6839 5.94129 11.1213 5.37868C10.5587 4.81607 9.79565 4.5 9 4.5H2V5.585C2.00003 10.1811 1.49704 14.7634 0.5 19.25V19.5H9C9.79565 19.5 10.5587 19.8161 11.1213 20.3787C11.6839 20.9413 12 21.7044 12 22.5M12 7.5C12 6.70435 12.3161 5.94129 12.8787 5.37868C13.4413 4.81607 14.2044 4.5 15 4.5H22V5.585C22 10.181 22.503 14.763 23.5 19.25V19.5H15C14.2044 19.5 13.4413 19.8161 12.8787 20.3787C12.3161 20.9413 12 21.7044 12 22.5M12 22.5V23" stroke="#2581D8" stroke-width="1.5"/>
</g>
<defs>
<clipPath id="clip0_53_353">
<rect width="24" height="24" fill="white"/>
</clipPath>
</defs>
</svg>
